Simulation
nRows=19
nColumns=15
endheader
time  TH_x TH_y TH_z SC_y  SC_z  SC_x  AC_y  AC_z  AC_x  GH_y  GH_z  GH_yy  EL_x  PS_y
0.0  0.000000  0.000000  0.000000  -29.219724466784452  -0.5664448350831748  -2.3914233677649315  56.32072463791421  8.79816808078213  -6.097049943341672  31.78619151815031  16.180274984526168  8.567022108810304  27.10026015999142  0.000000
0.038999999999999986  0.000000  0.000000  0.000000  -28.85360523523284  -0.3178242083638545  -2.55200948549199  55.99022184033805  8.861254072543817  -5.990266633693563  31.81903899448299  16.225502065130964  8.427523027266904  26.698628095344873  0.000000
0.07799999999999997  0.000000  0.000000  0.000000  -28.53124930134724  -0.1526761281151082  -2.7932238123874478  55.67738299859428  8.889199494514534  -5.892731021251808  31.726390732002127  16.202273112061757  8.422386475622273  26.286588954048813  0.000000
0.11699999999999997  0.000000  0.000000  0.000000  -28.25659850240516  -0.07374373272442787  -3.105086838342214  55.43651034659643  8.938228489788509  -5.771610010772  31.625681567247923  16.19724387823609  8.394385464583728  25.89288221268834  0.000000
0.15599999999999994  0.000000  0.000000  0.000000  -28.03590606973029  -0.07301768303138997  -3.4557705236102296  55.30993326781295  9.038331199687972  -5.613994174532435  31.689422649536155  16.308239174185328  8.102805732030687  25.53909840012813  0.000000
0.19499999999999992  0.000000  0.000000  0.000000  -27.884036959373883  -0.12468972422925963  -3.7944278844631563  55.31610173371568  9.192582166817154  -5.419578424981609  32.106152646568134  16.62335469476884  7.304532551920357  25.24523706905672  0.000000
0.23399999999999993  0.000000  0.000000  0.000000  -27.805964707008254  -0.19698621030777544  -4.07469224306405  55.44404432978171  9.393743018439212  -5.202389279894259  33.0305255651724  17.207432783937566  5.801560824015157  25.02325984652696  0.000000
0.2729999999999999  0.000000  0.000000  0.000000  -27.802824969027526  -0.26343486284318657  -4.259694222055037  55.670379126988514  9.626518877016386  -4.982262422768567  34.5064407070671  18.10183159355209  3.525614129372325  24.87119193060095  0.000000
0.3119999999999999  0.000000  0.000000  0.000000  -27.8589282819889  -0.30416934152308894  -4.324167860621682  55.9662472532414  9.87009627059171  -4.778395728277927  36.4443589087788  19.320782216302803  0.5529275886978781  24.781004116009065  0.000000
0.35099999999999987  0.000000  0.000000  0.000000  -27.943607608100386  -0.3100792092132352  -4.250641705308155  56.310276268403726  10.103096734405941  -4.606901556204047  38.637657112532445  20.85104279070164  -2.904931970893066  24.742954345989656  0.000000
0.38999999999999985  0.000000  0.000000  0.000000  -28.013833081791002  -0.2816088028071957  -4.030171631432289  56.6862267873669  10.311846149429085  -4.480434734350511  40.8411667235304  22.6519389971081  -6.583084190701967  24.751915981924174  0.000000
0.4289999999999998  0.000000  0.000000  0.000000  -28.02964988711086  -0.2238479962322312  -3.660051116609062  57.08468385846487  10.49332832273161  -4.407232975134758  42.84986160256358  24.66208218949012  -10.240260848726532  24.80782506729967  0.000000
0.46799999999999986  0.000000  0.000000  0.000000  -27.963738166998496  -0.1424187267931129  -3.1397390100438125  57.4989542912383  10.650534639630132  -4.392049975286341  44.549103101124274  26.81141497038254  -13.71768841525328  24.90550146447122  0.000000
0.5069999999999998  0.000000  0.000000  0.000000  -27.806467024605244  -0.041150817020084086  -2.466896548828444  57.92407884029524  10.787227743314746  -4.438524138267372  45.91689479532182  29.033326825189253  -16.949393923271884  25.02769827968486  0.000000
0.5459999999999998  0.000000  0.000000  0.000000  -27.567151133813105  0.0805259203410269  -1.6364846938636328  58.35126622879194  10.903285228761103  -4.549943331946863  47.003456786493324  31.272987543253016  -19.950401728458534  25.150749319742335  0.000000
0.5849999999999997  0.000000  0.000000  0.000000  -27.273011204612118  0.2265135210063856  -0.6434927708744362  58.76630052561849  10.993864348705241  -4.729544588098786  47.90135670300708  33.49171059210015  -22.79443299886724  25.25264165102887  0.000000
0.6239999999999998  0.000000  0.000000  0.000000  -26.96362502748831  0.401938989140946  0.512996488010619  59.15108593842797  11.051310384912716  -4.978437031054779  48.713738442850534  35.66725024734355  -25.57991991849566  25.318914371002645  0.000000
0.6629999999999998  0.000000  0.000000  0.000000  -26.677938245815263  0.6113841225094732  1.827901786368702  59.489963816921765  11.068407007277097  -5.29268569676626  49.5231565070061  37.78982008194615  -28.388273314077672  25.342519039490742  0.000000
0.7019999999999997  0.000000  0.000000  0.000000  -26.4394718305503  0.8564011898795891  3.291947498949822  59.77639354016585  11.041340744112937  -5.661807319400605  50.36731009386914  39.855043564383514  -31.24253950638397  25.320079557407432  0.000000
